# xmcd CD database file
#
# Track frame offsets:
#	150
#	24357
#	42015
#	61850
#	85396
#	98246
#	127228
#	162437
#	179502
#	200975
#	212655
#	229954
#
# Disc length: 3375 seconds
#
# Revision: 0
# Processed by: cddbd v1.5.2PL0 Copyright (c) Steve Scherf et al.
# Submitted via: CDex 1.70beta2
#
DISCID=ac0d2d0c
DTITLE=Pissuk Rachav - Eretz Hakodesh
DYEAR=2009
DGENRE=Jazz
TTITLE0=Jesus Christ the nazarene runs in the streets of Tel Aviv shouting Allah Hu Akbar - Invocation
TTITLE1=Allenby Vagina Street
TTITLE2=Holy bond
TTITLE3=A feeling divine
TTITLE4=Taqsim
TTITLE5=Song of love
TTITLE6=End of thought
TTITLE7=The great Shofar
TTITLE8=Jerusalem
TTITLE9=Blessing
TTITLE10=Sweet death of roses
TTITLE11=The holy land
EXTD=YEAR: 2009
EXTT0=
EXTT1=
EXTT2=
EXTT3=
EXTT4=
EXTT5=
EXTT6=
EXTT7=
EXTT8=
EXTT9=
EXTT10=
EXTT11=
PLAYORDER=
